# xmcd
#
# Track frame offsets:
#	150
#	18517
#	31729
#	50214
#	68938
#	84356
#	101924
#	124766
#	141519
#	157127
#	171319
#	184671
#	199410
#
# Disc length: 2986 seconds
#
# Revision: 0
# Processed by: cddbd v1.5PL3 Copyright (c) Steve Scherf et al.
# Submitted via: audiograbber 1.80
#
DISCID=c20ba80d
DTITLE=Alan Jackson - Drive
DYEAR=1900
DGENRE=
TTITLE0=Drive
TTITLE1=A Little Bluer Than That
TTITLE2=Bring on the Night
TTITLE3=Work in Progress
TTITLE4=The Sounds
TTITLE5=Designated Drinker
TTITLE6=Where Were You
TTITLE7=That'd be Alright
TTITLE8=Once In a Lifetime Love
TTITLE9=When Love Comes Around
TTITLE10=I Slipped and Fell in Love
TTITLE11=First Love
TTITLE12=Where Were You - Live
EXTD=
EXTT0=
EXTT1=
EXTT2=
EXTT3=
EXTT4=
EXTT5=
EXTT6=
EXTT7=
EXTT8=
EXTT9=
EXTT10=
EXTT11=
EXTT12=
PLAYORDER=
